<?xml version="1.0" encoding="UTF-8"?>
<svg xmlns="http://www.w3.org/2000/svg" width="454" height="454" xmlns:xlink="http://www.w3.org/1999/xlink" viewBox="0 0 454 454">
  <defs>
    <radialGradient id="b" cx="121.63" cy="326.63" fx="121.63" fy="326.63" r="15.93" gradientUnits="userSpaceOnUse">
      <stop offset="0" stop-color="#289152"/>
      <stop offset=".23" stop-color="#248b4e"/>
      <stop offset=".52" stop-color="#1a7c43"/>
      <stop offset=".84" stop-color="#0a6331"/>
      <stop offset="1" stop-color="#005426"/>
    </radialGradient>
    <radialGradient id="c" cx="345.56" fx="345.56" r="15.93" xlink:href="#b"/>
    <linearGradient id="e" x1="403.1" y1="283.98" x2="63.45" y2="283.98" gradientTransform="translate(351.59 -40.98) rotate(60)" gradientUnits="userSpaceOnUse">
      <stop offset="0" stop-color="#6584d6"/>
      <stop offset=".24" stop-color="#5373be"/>
      <stop offset=".66" stop-color="#395a99"/>
      <stop offset=".88" stop-color="#2f518b"/>
    </linearGradient>
    <linearGradient id="f" x1="215.3" y1="289.31" x2="368.73" y2="289.31" gradientUnits="userSpaceOnUse">
      <stop offset="0" stop-color="#289152"/>
      <stop offset=".25" stop-color="#268d50"/>
      <stop offset=".46" stop-color="#21834a"/>
      <stop offset=".66" stop-color="#187240"/>
      <stop offset=".84" stop-color="#0d5933"/>
      <stop offset="1" stop-color="#003f24"/>
    </linearGradient>
    <linearGradient id="g" x1="128.01" y1="369.97" x2="341.81" y2="369.97" gradientUnits="userSpaceOnUse">
      <stop offset="0" stop-color="#003f24"/>
      <stop offset=".02" stop-color="#024427"/>
      <stop offset=".16" stop-color="#126539"/>
      <stop offset=".29" stop-color="#1e7d47"/>
      <stop offset=".41" stop-color="#258c4f"/>
      <stop offset=".52" stop-color="#289152"/>
      <stop offset=".62" stop-color="#258c4f"/>
      <stop offset=".73" stop-color="#1f7f48"/>
      <stop offset=".85" stop-color="#146a3c"/>
      <stop offset=".96" stop-color="#064c2c"/>
      <stop offset="1" stop-color="#014226"/>
    </linearGradient>
    <linearGradient id="h" x1="174.2" y1="288.36" x2="110.56" y2="289.46" xlink:href="#f"/>
    <linearGradient id="i" x2="63.45" gradientTransform="matrix(1,0,0,1,0,0)" xlink:href="#e"/>
    <linearGradient id="j" x1="47.51" y1="398.5" x2="323.24" y2="108.1" gradientUnits="userSpaceOnUse">
      <stop offset="0" stop-color="#009f76"/>
      <stop offset="1" stop-color="#006476"/>
    </linearGradient>
    <linearGradient id="k" x1="-2770.63" y1="75.89" x2="-2543.57" y2="75.89" gradientTransform="translate(-2367.67 458.59) rotate(-180)" gradientUnits="userSpaceOnUse">
      <stop offset="0" stop-color="#6584d6"/>
      <stop offset=".24" stop-color="#5373be"/>
      <stop offset=".66" stop-color="#395a99"/>
      <stop offset=".88" stop-color="#2f518b"/>
    </linearGradient>
    <linearGradient id="l" y1="126.56" y2="126.56" xlink:href="#k"/>
    <linearGradient id="m" x1="290.4" y1="217.9" x2="63.27" y2="217.9" gradientTransform="matrix(1,0,0,1,0,0)" xlink:href="#e"/>
    <linearGradient id="n" x1="63.15" y1="128.78" x2="380.79" y2="128.78" gradientUnits="userSpaceOnUse">
      <stop offset="0" stop-color="#289152"/>
      <stop offset=".11" stop-color="#268d50"/>
      <stop offset=".19" stop-color="#21834a"/>
      <stop offset=".27" stop-color="#187240"/>
      <stop offset=".35" stop-color="#0d5933"/>
      <stop offset=".42" stop-color="#003f24"/>
      <stop offset=".45" stop-color="#074e2c"/>
      <stop offset=".5" stop-color="#116438"/>
      <stop offset=".56" stop-color="#197641"/>
      <stop offset=".63" stop-color="#1e8248"/>
      <stop offset=".74" stop-color="#22894b"/>
      <stop offset="1" stop-color="#238b4d"/>
    </linearGradient>
    <linearGradient id="o" x1="290.4" y1="117.39" x2="63.27" y2="117.39" gradientTransform="matrix(1,0,0,1,0,0)" xlink:href="#e"/>
    <linearGradient id="p" x1="175.91" y1="167.17" x2="283.19" y2="167.17" xlink:href="#j"/>
    <linearGradient id="q" x1="290.4" y1="155.77" x2="63.27" y2="155.77" gradientTransform="matrix(1,0,0,1,0,0)" xlink:href="#e"/>
    <linearGradient id="r" x1="451.97" y1="347.4" x2="249.33" y2="225.09" xlink:href="#j"/>
    <linearGradient id="s" x1="63.45" y1="246.84" x2="227.27" y2="246.84" gradientUnits="userSpaceOnUse">
      <stop offset="0" stop-color="#009f76"/>
      <stop offset=".24" stop-color="#009976"/>
      <stop offset=".55" stop-color="#008876"/>
      <stop offset=".89" stop-color="#006d76"/>
      <stop offset="1" stop-color="#006476"/>
    </linearGradient>
  </defs>
  <g id="a" data-name="Layer 1">
    <circle cx="121.63" cy="326.63" r="15.93" fill="url(#b)"/>
    <circle cx="345.56" cy="326.63" r="15.93" fill="url(#c)"/>
  </g>
  <g id="d" data-name="Layer 2">
    <g>
      <rect x="195.11" y="283.98" width="32.33" height="0" transform="translate(-140.3 324.98) rotate(-60)" fill="url(#e)"/>
      <path d="M231.46,269.98l-16.16,28h131.17c8.98,0,17.01,4.16,22.26,10.65l-22.31-38.65h-114.95Z" fill="url(#f)"/>
      <path d="M352.1,355.41c-1.82.37-3.71.56-5.64.56h-3.57c3.05.31,6.15.14,9.21-.56Z" fill="#3771c8"/>
      <path d="M358.27,382.73c-.21.05-.43.09-.64.14.21-.04.43-.09.64-.14Z" fill="#3771c8"/>
      <path d="M296.77,355.97h-127.05l-.12.2c-9.12,15.8-24.77,25.54-41.59,27.8h213.8c-18.09-1.28-35.26-11.19-45.04-28Z" fill="url(#g)"/>
      <path d="M120.09,297.98h38.71l16.16-28h-54.87s-.02,0-.02,0l-22.52,39.01c5.25-6.7,13.4-11.01,22.55-11.01Z" fill="url(#h)"/>
      <polygon points="170.89 297.98 203.19 297.98 219.36 269.98 187.06 269.98 170.89 297.98" fill="url(#i)"/>
      <path d="M169.6,356.18l.12-.2h-43.84c-6.51,1.24-13.47.25-19.65-3.32l-.62-.36c-6.62-3.83-11.36-10-13.34-17.39-1.19-4.45-1.29-9.01-.35-13.39.84-4.66,2.82-8.94,5.63-12.53l22.52-39.01c-18.96,0-35.76,9.39-46.04,23.74l-3.15,5.45c-3.03,5.25-5.15,10.84-6.38,16.6-.68,3.51-1.05,7.13-1.05,10.84v.71c0,31.23,25.41,56.64,56.64,56.64h7.92c16.82-2.26,32.47-12,41.59-27.8Z" fill="#3771c8"/>
      <path d="M255.39,151.58l-16.12,27.92,16.17,28,27.35-47.38c.03-.06.06-.12.1-.18l-4.83-8.37h-22.67Z" fill="url(#j)"/>
      <path d="M358.59,382.65c-.11.02-.21.05-.32.07.11-.02.21-.05.32-.07Z" fill="url(#k)"/>
      <path d="M375.1,327.34v-.71c0-6.81-2.39-13.07-6.38-17.99l2.42,4.18c7.9,13.68,3.19,31.23-10.48,39.12l-.62.36c-2.54,1.47-5.22,2.5-7.94,3.12,13.1-2.63,23-14.22,23-28.08Z" fill="url(#l)"/>
      <path d="M374.66,376.19c27.05-15.62,36.35-50.32,20.73-77.37l-3.27-5.66c-10.32-14.04-26.94-23.17-45.66-23.17h-.05l22.31,38.65c3.98,4.92,6.38,11.18,6.38,17.99v.71c0,13.86-9.9,25.45-23,28.08-3.05.69-6.16.87-9.21.56h-46.13c9.78,16.81,26.95,26.72,45.04,28h4.66c3.82,0,7.55-.39,11.17-1.11.21-.05.43-.09.64-.14.11-.02.21-.05.32-.07,5.3-1.23,10.5-3.25,15.45-6.11l.62-.36Z" fill="#3771c8"/>
      <path d="M256.81,114.96c.4.59.78,1.19,1.14,1.81l1.89,3.28c-.81-1.8-1.79-3.5-2.94-5.08h-.09Z" fill="#00baff"/>
      <polygon points="249.38 217.98 233.22 189.98 217.15 217.81 233.32 245.81 249.38 217.98" fill="url(#m)"/>
      <path d="M367.72,114.97h-78.48s-32.34,0-32.34,0h0s-101.72,0-101.72,0c-.62,0-1.23.06-1.83.14-.74-4.14-4.28-7.29-8.59-7.44-7.43-13.37-21.69-22.42-38.08-22.42-24.05,0-43.54,19.49-43.54,43.54s19.49,43.54,43.54,43.54c16.43,0,30.73-9.11,38.14-22.54,4.74-.2,8.53-4.03,8.66-8.79.55.07,1.12.12,1.69.12h105.64s0,0,0,0h43.51s22.68,0,22.68,0v25.9h12.66v-15.15h13.04v15.15h12.66v-25.9h2.35c7.22,0,13.07-5.85,13.07-13.07s-5.85-13.07-13.07-13.07ZM106.53,151.24c-12.41,0-22.46-10.06-22.46-22.46s10.06-22.46,22.46-22.46,22.46,10.06,22.46,22.46-10.06,22.46-22.46,22.46Z" fill="url(#n)"/>
      <path d="M183.48,159.77l.11.19,21.95-38.02c2.19-6.23,6.52-11.74,12.67-15.29l.62-.36c4.5-2.6,9.42-3.83,14.27-3.83,3.64,0,7.23.7,10.6,2.03h39.49l-.99-1.71c-1.71-2.97-3.67-5.71-5.8-8.24-4.05-4.63-8.86-8.61-14.34-11.77l-.62-.36c-27.05-15.61-61.75-6.31-77.37,20.73l-3.79,6.57c-6.52,15.73-5.94,34.21,3.21,50.06Z" fill="url(#o)"/>
      <path d="M207.73,145.77c-4.34-7.52-4.87-16.22-2.19-23.83,2.19-6.23,6.52-11.74,12.67-15.29l.62-.36c4.5-2.6,9.42-3.83,14.27-3.83,3.64,0,7.23.7,10.6,2.03h39.49l-.99-1.71c-1.71-2.97-3.67-5.71-5.8-8.24-4.05-4.63-8.86-8.61-14.34-11.77l-.62-.36c-27.05-15.61-61.75-6.31-77.37,20.73l-3.79,6.57c-6.52,15.73-5.94,34.21,3.21,50.06l.11.19,31.18,54,26.3,45.55h32.33l-43.34-75.07-22.33-38.67Z" fill="url(#p)"/>
      <path d="M278.05,151.58l4.83,8.37c1.55-2.7,2.85-5.5,3.92-8.37h-8.75Z" fill="url(#q)"/>
      <path d="M395.39,298.82l-3.27-5.66-81.74-141.57h-32.33l4.83,8.37c.77-1.35,1.49-2.73,2.14-4.12-.65,1.4-1.37,2.77-2.14,4.12l63.53,110.03,22.31,38.65c3.98,4.92,6.38,11.18,6.38,17.99v.71c0,13.86-9.9,25.45-23,28.08-3.05.69-6.16.87-9.21.56-8.86-.89-17.19-5.88-21.97-14.16l-19.26-33.35h-32.33l27.34,47.35c.03.05.07.11.1.16,9.78,16.81,26.95,26.72,45.04,28h4.66c3.82,0,7.55-.39,11.17-1.11.21-.05.43-.09.64-.14.11-.02.21-.05.32-.07,5.3-1.23,10.5-3.25,15.45-6.11l.62-.36c27.05-15.62,36.35-50.32,20.73-77.37Z" fill="url(#r)"/>
      <path d="M211.1,228.29l-65.75,113.89c-4.33,7.5-11.57,12.29-19.47,13.8-6.51,1.24-13.47.25-19.65-3.32l-.62-.36c-6.62-3.83-11.36-10-13.34-17.39-1.19-4.45-1.29-9.01-.35-13.39.84-4.66,2.82-8.94,5.63-12.53l22.52-39.01,63.53-110.03-.11-.19c-9.15-15.85-9.73-34.33-3.21-50.06l-106.24,184.02-3.15,5.45c-3.03,5.25-5.15,10.84-6.38,16.6-.68,3.51-1.05,7.13-1.05,10.84v.71c0,31.23,25.41,56.64,56.64,56.64h7.92c16.82-2.26,32.47-12,41.59-27.8l.12-.2,33.48-57.99,16.17-28,7.91-13.7-16.17-28Z" fill="url(#s)"/>
    </g>
  </g>
</svg>